<?xml version="1.0" encoding="utf-8"?>
<!-- Generator: Adobe Illustrator 24.3.0, SVG Export Plug-In . SVG Version: 6.00 Build 0)  -->
<svg version="1.1" id="Layer_1" xmlns="http://www.w3.org/2000/svg" xmlns:xlink="http://www.w3.org/1999/xlink" x="0px" y="0px"
	 viewBox="0 0 80 80" enable-background="new 0 0 80 80" xml:space="preserve">
<g>
	<path fill="#525C6B" d="M60.708,20.387c-2.591-2.65-6.081-3.707-8.069-4.113c-0.922-0.188-1.869,0.289-2.228,1.16
		c-1.206,2.932-1.072,5.569-0.481,7.676l3.815-4.213c0.426,6.144,5.744,8.269,8.539,8.964c0.884,0.22,1.748-0.462,1.715-1.371
		C63.938,26.848,63.556,23.236,60.708,20.387z"/>
	<path fill="#E2E2E2" d="M49.931,25.114c-0.592-2.107-0.726-4.746,0.48-7.68c0,0-15.84,23.722-34.412,35.352
		c0,0-0.076,7.494,6.997,10.42c0,0,5.758-8.967,16.268-20.146l2.905-3.019c1.32-1.342,2.696-2.713,4.15-4.078
		c0.788-0.74,2.373-2.209,3.17-2.938c1.035-0.948,2.11-1.884,3.207-2.825C52.698,30.198,50.81,28.242,49.931,25.114z"/>
	<path fill="#C6C6C6" d="M62.285,29.861c-2.795-0.695-8.113-2.82-8.539-8.964L49.93,25.11l0.001,0.004
		c0.879,3.129,2.767,5.084,2.767,5.084c-1.097,0.941-2.172,1.877-3.207,2.825c-0.797,0.729-2.382,2.198-3.17,2.938
		c-1.454,1.365-2.83,2.736-4.15,4.078l-2.905,3.019c-7.328,7.794-12.345,14.513-14.712,17.867c2.831,2.751,7.787,2.841,7.787,2.841
		c1.776-2.829,3.631-5.542,5.566-8.073c0.655-0.855,1.978-2.557,2.647-3.402c11.041-13.953,22.652-22.5,22.741-22.566
		C63,29.889,62.644,29.95,62.285,29.861z"/>
	<path fill="#FFBD66" d="M37.378,33.92l-2.931,3.191c0,0,2.318,7.726,12.183,8.086l2.835-3.017
		C40.044,41.213,37.378,33.92,37.378,33.92z"/>
	<path fill="#FFBD66" d="M39.717,25.502c-0.855-4.475-3.779-7.677-6.531-7.15c-2.752,0.525-4.29,4.58-3.435,9.055
		c0.855,4.476,6.555,7.691,6.555,7.691c-0.598-1.363-3.399-7.546-3.513-8.143c-0.308-1.611,0.424-3.062,1.415-3.252
		c0.991-0.19,2.297,1.016,2.606,2.627c0.308,1.612-0.508,8.768-0.508,8.768C40.563,31.186,39.855,26.227,39.717,25.502z"/>
	<path fill="#FDDC85" d="M27.436,34.74c-1.587-0.421-2.577-1.709-2.318-2.685c0.259-0.975,1.911-1.631,3.497-1.21
		c1.586,0.421,7.681,4.257,7.681,4.257c-1.681-5.532-6.457-7.043-7.169-7.232c-4.404-1.168-8.557,0.08-9.275,2.788
		c-0.719,2.708,2.269,5.851,6.673,7.02c4.404,1.169,9.772-2.575,9.772-2.575C34.808,35.05,28.023,34.895,27.436,34.74z"/>
</g>
</svg>
