<?xml version="1.0" encoding="utf-8"?>
<!-- Generator: Adobe Illustrator 24.3.0, SVG Export Plug-In . SVG Version: 6.00 Build 0)  -->
<svg version="1.1" id="Layer_1" xmlns="http://www.w3.org/2000/svg" xmlns:xlink="http://www.w3.org/1999/xlink" x="0px" y="0px"
	 viewBox="0 0 180 180" enable-background="new 0 0 180 180" xml:space="preserve">
<g>
	<g id="XMLID_459_">
		<path fill="#FFDB76" d="M154.623,90c0,35.69-28.933,64.623-64.623,64.623c-35.689,0-64.622-28.934-64.622-64.623
			c0-35.689,28.933-64.623,64.622-64.623C125.69,25.377,154.623,54.311,154.623,90z"/>
	</g>
	<g>
		<g>
			<path fill="#FFDB76" d="M101.033,128.396H76.986c-1.859,0-3.382-1.522-3.382-3.381v-0.869c0-1.859,1.522-3.381,3.382-3.381
				h24.047c1.859,0,3.382,1.521,3.382,3.381v0.869C104.414,126.875,102.892,128.396,101.033,128.396z"/>
		</g>
		<g>
			<path fill="#FFDB76" d="M99.129,143.236H68.884c-1.86,0-3.382-1.52-3.382-3.379v-0.869c0-1.861,1.522-3.383,3.382-3.383h30.245
				c1.86,0,3.382,1.521,3.382,3.383v0.869C102.511,141.717,100.99,143.236,99.129,143.236z"/>
		</g>
		<g>
			<path fill="#FFDB76" d="M119.924,143.236h-11.166c-1.86,0-3.382-1.52-3.382-3.379v-0.869c0-1.861,1.521-3.383,3.382-3.383h11.166
				c1.86,0,3.382,1.521,3.382,3.383v0.869C123.306,141.717,121.785,143.236,119.924,143.236z"/>
		</g>
		<g>
			<path fill="#FFDB76" d="M96.12,132.465v-0.869c0-1.861,1.521-3.381,3.382-3.381H82.808c1.859,0,3.382,1.52,3.382,3.381v0.869
				c0,1.859-1.522,3.381-3.382,3.381h16.693C97.641,135.846,96.12,134.324,96.12,132.465z"/>
		</g>
	</g>
	<g>
		<g>
			<path fill="#FFDB76" d="M125.233,100.412h-18.8c-1.453,0-2.644-1.189-2.644-2.645V97.09c0-1.455,1.191-2.645,2.644-2.645h18.8
				c1.454,0,2.644,1.189,2.644,2.645v0.678C127.876,99.223,126.687,100.412,125.233,100.412z"/>
		</g>
		<g>
			<path fill="#FFDB76" d="M123.745,112.014h-23.646c-1.454,0-2.644-1.189-2.644-2.643v-0.68c0-1.453,1.189-2.645,2.644-2.645
				h23.646c1.454,0,2.644,1.191,2.644,2.645v0.68C126.388,110.824,125.199,112.014,123.745,112.014z"/>
		</g>
		<g>
			<path fill="#FFDB76" d="M140.001,112.014h-8.73c-1.454,0-2.644-1.189-2.644-2.643v-0.68c0-1.453,1.19-2.645,2.644-2.645h8.73
				c1.454,0,2.644,1.191,2.644,2.645v0.68C142.645,110.824,141.456,112.014,140.001,112.014z"/>
		</g>
		<g>
			<path fill="#FFDB76" d="M121.391,103.592v-0.68c0-1.453,1.189-2.643,2.644-2.643h-13.05c1.454,0,2.642,1.189,2.642,2.643v0.68
				c0,1.453-1.188,2.645-2.642,2.645h13.05C122.581,106.236,121.391,105.045,121.391,103.592z"/>
		</g>
	</g>
	<g>
		<g>
			<path fill="#FFDB76" d="M65.327,92.963H46.528c-1.454,0-2.644-1.189-2.644-2.643v-0.68c0-1.453,1.189-2.643,2.644-2.643h18.799
				c1.454,0,2.644,1.189,2.644,2.643v0.68C67.97,91.773,66.781,92.963,65.327,92.963z"/>
		</g>
		<g>
			<path fill="#FFDB76" d="M63.838,104.564H40.193c-1.454,0-2.644-1.188-2.644-2.643v-0.68c0-1.453,1.189-2.643,2.644-2.643h23.645
				c1.454,0,2.644,1.189,2.644,2.643v0.68C66.482,103.377,65.293,104.564,63.838,104.564z"/>
		</g>
		<g>
			<path fill="#FFDB76" d="M80.096,104.564h-8.731c-1.453,0-2.643-1.188-2.643-2.643v-0.68c0-1.453,1.189-2.643,2.643-2.643h8.731
				c1.453,0,2.644,1.189,2.644,2.643v0.68C82.74,103.377,81.549,104.564,80.096,104.564z"/>
		</g>
		<g>
			<path fill="#FFDB76" d="M61.485,96.144v-0.68c0-1.453,1.189-2.645,2.643-2.645h-13.05c1.454,0,2.644,1.191,2.644,2.645v0.68
				c0,1.453-1.19,2.643-2.644,2.643h13.05C62.674,98.787,61.485,97.598,61.485,96.144z"/>
		</g>
	</g>
	<g>
		<g>
			<path fill="#FFDB76" d="M113.116,42.519H94.317c-1.454,0-2.644-1.189-2.644-2.643v-0.68c0-1.453,1.189-2.643,2.644-2.643h18.799
				c1.454,0,2.644,1.189,2.644,2.643v0.68C115.759,41.33,114.57,42.519,113.116,42.519z"/>
		</g>
		<g>
			<path fill="#FFDB76" d="M111.627,54.123H87.982c-1.454,0-2.644-1.191-2.644-2.645v-0.68c0-1.453,1.189-2.643,2.644-2.643h23.645
				c1.454,0,2.644,1.189,2.644,2.643v0.68C114.271,52.932,113.081,54.123,111.627,54.123z"/>
		</g>
		<g>
			<path fill="#FFDB76" d="M127.885,54.123h-8.73c-1.455,0-2.644-1.191-2.644-2.645v-0.68c0-1.453,1.188-2.643,2.644-2.643h8.73
				c1.453,0,2.643,1.189,2.643,2.643v0.68C130.529,52.932,129.338,54.123,127.885,54.123z"/>
		</g>
		<g>
			<path fill="#FFDB76" d="M109.274,45.701v-0.68c0-1.453,1.19-2.645,2.644-2.645h-13.05c1.454,0,2.644,1.191,2.644,2.645v0.68
				c0,1.453-1.189,2.643-2.644,2.643h13.05C110.464,48.344,109.274,47.154,109.274,45.701z"/>
		</g>
	</g>
	<g>
		<g>
			<path fill="#FFDB76" d="M74.392,56.977H55.593c-1.454,0-2.644-1.19-2.644-2.643v-0.68c0-1.453,1.19-2.645,2.644-2.645h18.799
				c1.454,0,2.644,1.191,2.644,2.645v0.68C77.036,55.787,75.846,56.977,74.392,56.977z"/>
		</g>
		<g>
			<path fill="#FFDB76" d="M72.904,68.58H49.258c-1.454,0-2.644-1.191-2.644-2.645v-0.68c0-1.453,1.189-2.643,2.644-2.643h23.646
				c1.454,0,2.645,1.189,2.645,2.643v0.68C75.548,67.389,74.358,68.58,72.904,68.58z"/>
		</g>
		<g>
			<path fill="#FFDB76" d="M89.162,68.58h-8.73c-1.454,0-2.643-1.191-2.643-2.645v-0.68c0-1.453,1.188-2.643,2.643-2.643h8.73
				c1.454,0,2.645,1.189,2.645,2.643v0.68C91.806,67.389,90.616,68.58,89.162,68.58z"/>
		</g>
		<g>
			<path fill="#FFDB76" d="M70.551,60.156v-0.678c0-1.455,1.188-2.645,2.644-2.645h-13.05c1.454,0,2.644,1.189,2.644,2.645v0.678
				c0,1.453-1.189,2.645-2.644,2.645h13.05C71.74,62.801,70.551,61.609,70.551,60.156z"/>
		</g>
	</g>
	<g>
		<g>
			<polygon fill-rule="evenodd" clip-rule="evenodd" fill="#333333" points="103.817,95.781 87.585,104.043 96.037,136.027 
				103.627,122.678 118.323,127.191 			"/>
		</g>
		<g>
			<g>
				<polygon fill-rule="evenodd" clip-rule="evenodd" fill="#FFFFFF" points="91.809,104.043 104.622,97.523 103.817,95.781 
					87.585,104.043 96.037,136.027 98.92,130.953 				"/>
			</g>
		</g>
		<g>
			<polygon fill-rule="evenodd" clip-rule="evenodd" fill="#333333" points="78.171,94.725 94.405,102.984 85.953,134.973 
				78.363,121.619 63.667,126.135 			"/>
		</g>
		<g>
			<g>
				<polygon fill-rule="evenodd" clip-rule="evenodd" fill="#FFFFFF" points="81.509,98.062 94.022,104.43 94.405,102.984 
					78.171,94.725 63.667,126.135 69.354,124.389 				"/>
			</g>
		</g>
		<g>
			<polygon fill-rule="evenodd" clip-rule="evenodd" fill="#FF916E" points="90.061,43.973 93.115,47.857 97.03,44.719 
				99.21,49.152 103.692,46.894 104.902,51.687 109.755,50.412 109.943,55.35 114.956,55.109 114.112,59.98 119.065,60.787 
				117.227,65.375 121.904,67.197 119.153,71.303 123.349,74.055 119.804,77.5 123.336,81.064 119.153,83.697 121.867,87.918 
				117.227,89.623 119.003,94.316 114.112,95.018 114.874,99.978 109.943,99.648 109.657,104.658 104.902,103.311 103.581,108.15 
				99.21,105.846 96.91,110.305 93.115,107.139 89.94,111.025 86.884,107.139 82.97,110.279 80.789,105.846 76.307,108.102 
				75.097,103.311 70.244,104.586 70.057,99.648 65.044,99.887 65.887,95.018 60.935,94.209 62.773,89.623 58.095,87.801 
				60.846,83.697 56.651,80.943 60.195,77.5 56.664,73.934 60.846,71.303 58.134,67.08 62.773,65.375 60.996,60.684 65.887,59.98 
				65.125,55.019 70.057,55.35 70.343,50.34 75.097,51.687 76.419,46.846 80.789,49.152 83.089,44.693 86.884,47.857 			"/>
		</g>
		<g>
			<path fill-rule="evenodd" clip-rule="evenodd" fill="#333333" d="M90.404,57.166c0.502,0,0.911,0.406,0.911,0.91
				c0,0.504-0.409,0.912-0.911,0.912c-0.504,0-0.911-0.408-0.911-0.912C89.493,57.572,89.9,57.166,90.404,57.166L90.404,57.166z
				 M95.482,57.932c0.504,0,0.911,0.408,0.911,0.912c0,0.502-0.407,0.91-0.911,0.91c-0.503,0-0.91-0.408-0.91-0.91
				C94.572,58.34,94.979,57.932,95.482,57.932L95.482,57.932z M100.082,59.369c0.503,0,0.911,0.408,0.911,0.912
				c0,0.502-0.408,0.91-0.911,0.91c-0.503,0-0.911-0.408-0.911-0.91C99.171,59.777,99.58,59.369,100.082,59.369L100.082,59.369z
				 M104.492,62.723c0.503,0,0.912,0.408,0.912,0.912s-0.409,0.912-0.912,0.912c-0.505,0-0.912-0.408-0.912-0.912
				S103.987,62.723,104.492,62.723L104.492,62.723z M107.655,67.133c0.502,0,0.911,0.408,0.911,0.912c0,0.502-0.409,0.91-0.911,0.91
				c-0.504,0-0.912-0.408-0.912-0.91C106.743,67.541,107.151,67.133,107.655,67.133L107.655,67.133z M109.666,71.637
				c0.503,0,0.912,0.408,0.912,0.91c0,0.504-0.409,0.912-0.912,0.912c-0.503,0-0.91-0.408-0.91-0.912
				C108.756,72.045,109.164,71.637,109.666,71.637L109.666,71.637z M110.337,76.908c0.504,0,0.911,0.406,0.911,0.91
				s-0.407,0.912-0.911,0.912c-0.503,0-0.912-0.408-0.912-0.912S109.835,76.908,110.337,76.908L110.337,76.908z M85.038,57.644
				c0.502,0,0.911,0.408,0.911,0.912c0,0.502-0.409,0.91-0.911,0.91c-0.504,0-0.911-0.408-0.911-0.91
				C84.127,58.053,84.534,57.644,85.038,57.644L85.038,57.644z M80.341,59.656c0.504,0,0.911,0.408,0.911,0.912
				c0,0.504-0.407,0.912-0.911,0.912c-0.503,0-0.912-0.408-0.912-0.912C79.429,60.064,79.838,59.656,80.341,59.656L80.341,59.656z
				 M75.932,62.629c0.505,0,0.912,0.406,0.912,0.91s-0.407,0.912-0.912,0.912c-0.503,0-0.911-0.408-0.911-0.912
				S75.429,62.629,75.932,62.629L75.932,62.629z M109.955,81.893c0.504,0,0.912,0.406,0.912,0.91c0,0.504-0.408,0.912-0.912,0.912
				c-0.503,0-0.912-0.408-0.912-0.912C109.042,82.299,109.452,81.893,109.955,81.893L109.955,81.893z M107.655,86.012
				c0.503,0,0.912,0.408,0.912,0.912s-0.409,0.912-0.912,0.912c-0.504,0-0.912-0.408-0.912-0.912S107.151,86.012,107.655,86.012
				L107.655,86.012z M104.205,90.422c0.503,0,0.911,0.406,0.911,0.91c0,0.504-0.408,0.912-0.911,0.912s-0.91-0.408-0.91-0.912
				C103.294,90.828,103.702,90.422,104.205,90.422L104.205,90.422z M100.276,93.199c0.503,0,0.911,0.408,0.911,0.912
				s-0.408,0.91-0.911,0.91c-0.504,0-0.912-0.406-0.912-0.91S99.772,93.199,100.276,93.199L100.276,93.199z M95.387,95.502
				c0.505,0,0.912,0.408,0.912,0.91c0,0.504-0.407,0.912-0.912,0.912c-0.502,0-0.91-0.408-0.91-0.912
				C94.477,95.91,94.885,95.502,95.387,95.502L95.387,95.502z M90.021,96.361c0.503,0,0.911,0.41,0.911,0.912
				c0,0.504-0.408,0.912-0.911,0.912s-0.911-0.408-0.911-0.912C89.11,96.771,89.518,96.361,90.021,96.361L90.021,96.361z
				 M84.943,95.596c0.503,0,0.911,0.408,0.911,0.912s-0.408,0.912-0.911,0.912c-0.504,0-0.911-0.408-0.911-0.912
				S84.439,95.596,84.943,95.596L84.943,95.596z M79.739,93.252c0.503,0,0.911,0.408,0.911,0.912c0,0.504-0.408,0.91-0.911,0.91
				c-0.503,0-0.911-0.406-0.911-0.91C78.828,93.66,79.236,93.252,79.739,93.252L79.739,93.252z M76.365,90.178
				c0.504,0,0.912,0.408,0.912,0.91c0,0.504-0.408,0.912-0.912,0.912c-0.503,0-0.911-0.408-0.911-0.912
				C75.454,90.586,75.862,90.178,76.365,90.178L76.365,90.178z M73.195,86.238c0.503,0,0.911,0.408,0.911,0.912
				c0,0.504-0.408,0.91-0.911,0.91c-0.503,0-0.911-0.406-0.911-0.91C72.284,86.646,72.692,86.238,73.195,86.238L73.195,86.238z
				 M70.986,81.531c0.504,0,0.911,0.41,0.911,0.912c0,0.504-0.407,0.912-0.911,0.912c-0.502,0-0.911-0.408-0.911-0.912
				C70.075,81.941,70.484,81.531,70.986,81.531L70.986,81.531z M70.122,76.537c0.503,0,0.911,0.41,0.911,0.912
				c0,0.502-0.408,0.912-0.911,0.912c-0.503,0-0.911-0.41-0.911-0.912C69.21,76.947,69.619,76.537,70.122,76.537L70.122,76.537z
				 M70.986,71.447c0.504,0,0.911,0.408,0.911,0.912c0,0.502-0.407,0.91-0.911,0.91c-0.502,0-0.911-0.408-0.911-0.91
				C70.075,71.855,70.484,71.447,70.986,71.447L70.986,71.447z M73.099,66.932c0.503,0,0.911,0.41,0.911,0.912
				c0,0.504-0.408,0.91-0.911,0.91s-0.911-0.406-0.911-0.91C72.188,67.342,72.596,66.932,73.099,66.932z"/>
		</g>
		<g>
			<path fill="#333333" d="M108.771,59.135c-4.746-4.746-11.302-7.682-18.542-7.682c-7.24,0-13.795,2.936-18.54,7.682
				c-4.744,4.744-7.68,11.301-7.68,18.541c0,7.24,2.936,13.795,7.68,18.541c4.745,4.744,11.3,7.68,18.54,7.68
				c7.24,0,13.796-2.935,18.542-7.68c4.744-4.746,7.679-11.301,7.679-18.541C116.45,70.436,113.515,63.879,108.771,59.135z
				 M106.597,94.043c-4.188,4.189-9.976,6.779-16.368,6.779c-6.392,0-12.179-2.59-16.367-6.779
				c-4.188-4.188-6.779-9.975-6.779-16.367s2.591-12.18,6.779-16.369c4.188-4.188,9.976-6.777,16.367-6.777
				c6.393,0,12.18,2.59,16.368,6.777c4.188,4.189,6.779,9.977,6.779,16.369S110.785,89.855,106.597,94.043z"/>
		</g>
		<g>
			<path fill="#FFFFFF" d="M100.607,67.297C97.952,64.643,94.282,63,90.229,63c-4.052,0-7.721,1.643-10.377,4.297
				c-2.656,2.656-4.299,6.326-4.299,10.379c0,4.053,1.643,7.721,4.299,10.379c2.656,2.654,6.325,4.297,10.377,4.297
				c4.053,0,7.723-1.643,10.378-4.297c2.655-2.658,4.298-6.326,4.298-10.379C104.905,73.623,103.262,69.953,100.607,67.297z"/>
		</g>
	</g>
	<g>
		<g>
			<polygon fill="#FFFFFF" points="44.995,74.242 45.727,76.492 48.093,76.492 46.179,77.885 46.91,80.135 44.995,78.742 
				43.082,80.135 43.813,77.885 41.897,76.492 44.264,76.492 			"/>
		</g>
		<g>
			<polygon fill="#FFFFFF" points="49.189,87.883 49.641,89.275 51.104,89.275 49.92,90.135 50.373,91.527 49.189,90.666 
				48.006,91.527 48.457,90.135 47.274,89.275 48.737,89.275 			"/>
		</g>
		<g>
			<polygon fill="#FFFFFF" points="40.323,78.93 41.594,82.842 45.709,82.842 42.381,85.26 43.652,89.174 40.323,86.754 
				36.995,89.174 38.266,85.26 34.937,82.842 39.052,82.842 			"/>
		</g>
	</g>
	<g>
		<g>
			<polygon fill="#FFFFFF" points="59.579,110.844 60.31,113.096 62.676,113.096 60.761,114.486 61.492,116.738 59.579,115.346 
				57.664,116.738 58.394,114.486 56.481,113.096 58.847,113.096 			"/>
		</g>
		<g>
			<polygon fill="#FFFFFF" points="63.771,124.486 64.224,125.877 65.687,125.877 64.502,126.738 64.956,128.129 63.771,127.269 
				62.588,128.129 63.04,126.738 61.857,125.877 63.319,125.877 			"/>
		</g>
		<g>
			<polygon fill="#FFFFFF" points="54.906,115.531 56.177,119.445 60.292,119.445 56.963,121.863 58.235,125.777 54.906,123.357 
				51.577,125.777 52.849,121.863 49.521,119.445 53.635,119.445 			"/>
		</g>
	</g>
	<g>
		<g>
			<polygon fill="#FFFFFF" points="122.06,122.434 121.329,120.184 118.962,120.184 120.877,118.791 120.145,116.541 
				122.06,117.932 123.974,116.541 123.244,118.791 125.159,120.184 122.791,120.184 			"/>
		</g>
		<g>
			<polygon fill="#FFFFFF" points="117.867,108.793 117.414,107.4 115.952,107.4 117.134,106.541 116.683,105.148 117.867,106.01 
				119.049,105.148 118.598,106.541 119.782,107.4 118.319,107.4 			"/>
		</g>
		<g>
			<polygon fill="#FFFFFF" points="126.732,117.746 125.46,113.834 121.346,113.834 124.674,111.414 123.404,107.502 
				126.732,109.92 130.06,107.502 128.79,111.414 132.119,113.834 128.003,113.834 			"/>
		</g>
	</g>
	<g>
		<g>
			<polygon fill="#FFFFFF" points="130.974,79.605 130.243,77.355 127.876,77.355 129.79,75.965 129.058,73.715 130.974,75.105 
				132.888,73.715 132.157,75.965 134.072,77.355 131.706,77.355 			"/>
		</g>
		<g>
			<polygon fill="#FFFFFF" points="135.645,74.918 134.374,71.006 130.259,71.006 133.588,68.588 132.317,64.674 135.645,67.092 
				138.974,64.674 137.703,68.588 141.032,71.006 136.917,71.006 			"/>
		</g>
	</g>
</g>
</svg>
