<?xml version="1.0" encoding="utf-8"?>
<!-- Generator: Adobe Illustrator 24.3.0, SVG Export Plug-In . SVG Version: 6.00 Build 0)  -->
<svg version="1.1" id="Layer_1" xmlns="http://www.w3.org/2000/svg" xmlns:xlink="http://www.w3.org/1999/xlink" x="0px" y="0px"
	 viewBox="0 0 80 80" enable-background="new 0 0 80 80" xml:space="preserve">
<g>
	<path fill="#525C6B" d="M57.098,17.134c-0.08-0.174-0.254-0.285-0.445-0.285H23.348c-0.191,0-0.365,0.111-0.445,0.285
		c-0.08,0.174-0.051,0.378,0.073,0.523l4.199,4.898c0.093,0.108,0.229,0.171,0.372,0.171h24.908c0.143,0,0.279-0.062,0.372-0.171
		l4.199-4.898C57.149,17.512,57.177,17.308,57.098,17.134z"/>
	<path fill="#2BA0BF" d="M40.372,36.448L23.719,17.02c-0.093-0.108-0.229-0.171-0.372-0.171H16.49c-0.191,0-0.365,0.111-0.445,0.285
		c-0.08,0.174-0.052,0.378,0.073,0.523L36.2,41.087c0.093,0.107,0.229,0.17,0.372,0.17c0.143,0,0.279-0.062,0.372-0.17l3.429-4.002
		C40.529,36.903,40.529,36.632,40.372,36.448z"/>
	<path fill="#59C5EF" d="M63.955,17.134c-0.08-0.174-0.254-0.285-0.445-0.285h-6.857c-0.143,0-0.279,0.063-0.372,0.171L36.2,40.448
		c-0.157,0.184-0.157,0.455,0,0.639l3.429,4c0.093,0.107,0.229,0.17,0.372,0.17c0.143,0,0.279-0.062,0.372-0.17l23.51-27.429
		C64.007,17.512,64.035,17.308,63.955,17.134z"/>
	<path fill="#FDDC85" d="M49.796,52.604c0-5.41-4.386-9.795-9.796-9.795c-5.41,0-9.796,4.385-9.796,9.795
		c0,5.41,4.386,9.797,9.796,9.797C45.41,62.401,49.796,58.014,49.796,52.604z"/>
	<path fill="#FFBD66" d="M40,63.151c-5.815,0-10.546-4.732-10.546-10.547c0-5.814,4.731-10.545,10.546-10.545
		c5.815,0,10.546,4.73,10.546,10.545C50.546,58.419,45.815,63.151,40,63.151z M40,43.559c-4.988,0-9.046,4.057-9.046,9.045
		c0,4.988,4.058,9.047,9.046,9.047s9.046-4.059,9.046-9.047C49.046,47.616,44.988,43.559,40,43.559z"/>
	<polygon fill="#FFBD66" points="40,46.2 41.91,50.069 46.18,50.69 43.09,53.702 43.819,57.954 40,55.946 36.181,57.954 
		36.91,53.702 33.82,50.69 38.09,50.069 	"/>
</g>
</svg>
