<?xml version="1.0" encoding="utf-8"?>
<!-- Generator: Adobe Illustrator 24.3.0, SVG Export Plug-In . SVG Version: 6.00 Build 0)  -->
<svg version="1.1" id="Layer_1" xmlns="http://www.w3.org/2000/svg" xmlns:xlink="http://www.w3.org/1999/xlink" x="0px" y="0px"
	 viewBox="0 0 80 80" enable-background="new 0 0 80 80" xml:space="preserve">
<g>
	<path fill="#C6C6C6" d="M52.226,52.265c1.602,10.607-8.53,11.328-10.619,11.365h5.531v0.002c9.32,0,16.862-7.541,16.862-16.861
		v-0.002v-2.955C64,53.134,52.226,52.265,52.226,52.265z"/>
	<path fill="#E2E2E2" d="M24.616,16.368V63.63H41.23h0.377c2.089-0.037,12.221-0.758,10.619-11.365c0,0,11.774,0.869,11.774-8.451
		V16.368H24.616z"/>
	<polygon fill="#79CCB8" points="29.539,36.038 29.539,47.999 24.616,45.642 24.616,36.038 	"/>
	<polygon fill="#3DAA9D" points="19.692,36.038 19.692,47.999 24.616,45.642 24.616,36.038 	"/>
	<path fill="#FDDC85" d="M32.493,31.184c0,4.35-3.527,7.877-7.877,7.877c-4.351,0-7.877-3.527-7.877-7.877
		c0-4.35,3.526-7.877,7.877-7.877C28.966,23.307,32.493,26.835,32.493,31.184z"/>
	<path fill="#FFBD66" d="M24.616,39.8c-4.75,0-8.616-3.865-8.616-8.616c0-4.751,3.865-8.615,8.616-8.615
		c4.75,0,8.615,3.864,8.615,8.615C33.231,35.935,29.366,39.8,24.616,39.8z M24.616,24.046c-3.936,0-7.139,3.202-7.139,7.139
		c0,3.937,3.203,7.139,7.139,7.139c3.936,0,7.138-3.203,7.138-7.139C31.754,27.248,28.552,24.046,24.616,24.046z"/>
	<path fill="#FFBD66" d="M28.062,31.184c0,1.903-1.543,3.446-3.446,3.446c-1.903,0-3.446-1.543-3.446-3.446
		c0-1.903,1.543-3.446,3.446-3.446C26.519,27.738,28.062,29.281,28.062,31.184z"/>
	<rect x="39.385" y="22.522" fill="#525C6B" width="9.846" height="1.478"/>
	<rect x="47.139" y="28.431" fill="#525C6B" width="9.97" height="1.477"/>
	<rect x="36.431" y="28.431" fill="#525C6B" width="7.754" height="1.477"/>
	<rect x="51.323" y="34.339" fill="#525C6B" width="5.786" height="1.477"/>
	<rect x="36.431" y="34.339" fill="#525C6B" width="11.938" height="1.477"/>
	<rect x="43.775" y="40.247" fill="#525C6B" width="13.334" height="1.477"/>
	<rect x="34.461" y="40.247" fill="#525C6B" width="6.359" height="1.477"/>
	<rect x="34.461" y="46.155" fill="#525C6B" width="14.77" height="1.477"/>
	<rect x="30.522" y="52.064" fill="#525C6B" width="11.815" height="1.477"/>
</g>
</svg>
